<svg xmlns="http://www.w3.org/2000/svg" version="1.1" xmlns:xlink="http://www.w3.org/1999/xlink" xmlns:svgjs="http://svgjs.dev/svgjs" width="1000" height="625" viewBox="0 0 1000 625"><g transform="matrix(1,0,0,1,0,0)"><svg viewBox="0 0 512 320" data-background-color="#fafafa" preserveAspectRatio="xMidYMid meet" height="625" width="1000" xmlns="http://www.w3.org/2000/svg" xmlns:xlink="http://www.w3.org/1999/xlink"><g id="tight-bounds" transform="matrix(1,0,0,1,0,0)"><svg viewBox="0 0 512 320" height="320" width="512"><g><svg></svg></g><g><svg viewBox="0 0 512 320" height="320" width="512"><g><path xmlns="http://www.w3.org/2000/svg" d="M96 320l0-320 320 0 0 320z" fill="#130912" fill-rule="nonzero" stroke="none" stroke-width="1" stroke-linecap="butt" stroke-linejoin="miter" stroke-miterlimit="10" stroke-dasharray="" stroke-dashoffset="0" font-family="none" font-weight="none" font-size="none" text-anchor="none" style="mix-blend-mode: normal" data-fill-palette-color="tertiary"></path></g><g transform="matrix(1,0,0,1,183.32644017725258,80)"><svg viewBox="0 0 145.34711964549484 160" height="160" width="145.34711964549484"><g><svg viewBox="0 0 145.34711964549484 160" height="160" width="145.34711964549484"><g><svg viewBox="0 0 145.34711964549484 160" height="160" width="145.34711964549484"><g><svg viewBox="0 0 145.34711964549484 160" height="160" width="145.34711964549484"><g id="textblocktransform"><svg viewBox="0 0 145.34711964549484 160" height="160" width="145.34711964549484" id="textblock"><g><svg viewBox="0 0 145.34711964549484 160" height="160" width="145.34711964549484"><g transform="matrix(1,0,0,1,0,0)"><svg width="145.34711964549484" viewBox="-0.25 -33.849998474121094 30.75 33.849998474121094" height="160" data-palette-color="#fafafa"><path d="M-0.25 0L12.75-33.85 17.45-33.85 30.5 0 24.15 0 21.05-8.85 8.85-8.85 5.65 0-0.25 0ZM10.45-13.25L19.5-13.25Q17.9-17.75 16.75-21.43 15.6-25.1 15-27.2L15-27.2Q14.3-24.95 13.15-21.3 12-17.65 10.45-13.25L10.45-13.25Z" opacity="1" transform="matrix(1,0,0,1,0,0)" fill="#fafafa" class="wordmark-text-0" data-fill-palette-color="quaternary" id="text-0"></path></svg></g></svg></g></svg></g></svg></g><g></g></svg></g></svg></g></svg></g></svg></g><defs></defs></svg><rect width="512" height="320" fill="none" stroke="none" visibility="hidden"></rect></g></svg></g></svg>